<svg xmlns="http://www.w3.org/2000/svg" width="800" height="800" viewBox="0 0 800 800" version="1.1"><path d="M 381.035 49.934 C 380.363 51.191, 380 68.739, 380 100.014 C 380 147.684, 378.845 168.685, 375.922 174.146 C 375.415 175.094, 375 176.825, 375 177.993 C 375 185.818, 360.885 206.607, 348.500 217.023 C 343.547 221.188, 331.579 228.032, 326.889 229.381 C 305.504 235.530, 301.120 235.942, 288.239 233.012 C 263.871 227.469, 258.228 223.325, 210.775 176.129 C 163.665 129.273, 170.823 132.543, 153.126 149.797 C 135.873 166.617, 132.970 160.345, 179.819 207.460 C 219.962 247.831, 224.036 252.611, 231.020 267.537 C 250.257 308.648, 234.713 352.899, 194.500 371.500 C 179.976 378.218, 182.655 378, 114.697 378 L 53.069 378 50.034 380.966 L 47 383.933 47 400.514 L 47 417.095 49.646 419.548 L 52.292 422 110.896 422.020 C 171.550 422.040, 177.778 422.390, 188.634 426.388 C 223.780 439.331, 246.765 479.638, 238.075 513.090 C 231.078 540.026, 227.562 544.841, 179.971 592.653 C 132.504 640.341, 134.050 634.831, 161.352 658.988 C 169.722 666.394, 167.037 668.276, 212.500 623.139 C 257.505 578.456, 259.684 576.734, 281 569.016 C 306.566 559.760, 345.209 574.092, 363.609 599.654 C 377.950 619.578, 379.981 632.234, 379.992 701.770 L 380 751.041 400.750 750.770 L 421.500 750.500 421.753 603.333 L 422.007 456.165 525.412 559.583 C 646.775 680.961, 629.859 668.470, 648.353 650.365 C 665.405 633.673, 668.361 639.967, 621.173 592.504 C 579.888 550.980, 575.677 545.956, 569.249 530.554 C 567.400 526.124, 565.462 521.719, 564.943 520.764 C 564.425 519.809, 564 518.143, 564 517.062 C 564 515.982, 563.325 512.506, 562.500 509.339 C 555.572 482.740, 575.452 444.891, 603.799 430.711 C 619.950 422.632, 617.885 422.841, 688.500 422.127 L 750.500 421.500 750.771 400.572 C 751.103 374.897, 760.046 378.042, 686.500 377.971 C 635.144 377.922, 623.813 377.665, 620.500 376.471 C 618.300 375.679, 615.896 375.023, 615.157 375.015 C 612.433 374.985, 597.310 366.623, 591.232 361.787 C 569.590 344.566, 556.831 313.426, 562.500 291.661 C 563.325 288.494, 564 285.040, 564 283.985 C 564 282.931, 564.630 280.590, 565.399 278.784 C 566.169 276.978, 567.612 273.475, 568.606 271 C 574.794 255.596, 580.953 248.220, 622.340 206.652 C 668.600 160.190, 665.630 166.963, 647.570 149.109 C 630.799 132.528, 636.952 129.609, 590 176.426 C 542.148 224.142, 537.487 227.548, 511.936 233.477 C 479.072 241.103, 438.934 215.436, 426.743 179 C 422.740 167.038, 422 155.020, 422 102.011 C 422 67.019, 421.670 52.369, 420.839 50.547 L 419.679 48 400.875 48 C 383.307 48, 382.002 48.127, 381.035 49.934" stroke="none" fill="#000000" fill-rule="evenodd"/><path d="M 381.035 49.934 C 380.363 51.191, 380 68.739, 380 100.014 C 380 147.684, 378.845 168.685, 375.922 174.146 C 375.415 175.094, 375 176.825, 375 177.993 C 375 185.818, 360.885 206.607, 348.500 217.023 C 343.547 221.188, 331.579 228.032, 326.889 229.381 C 305.504 235.530, 301.120 235.942, 288.239 233.012 C 263.871 227.469, 258.228 223.325, 210.775 176.129 C 163.665 129.273, 170.823 132.543, 153.126 149.797 C 135.873 166.617, 132.970 160.345, 179.819 207.460 C 219.962 247.831, 224.036 252.611, 231.020 267.537 C 250.257 308.648, 234.713 352.899, 194.500 371.500 C 179.976 378.218, 182.655 378, 114.697 378 L 53.069 378 50.034 380.966 L 47 383.933 47 400.514 L 47 417.095 49.646 419.548 L 52.292 422 110.896 422.020 C 171.550 422.040, 177.778 422.390, 188.634 426.388 C 223.780 439.331, 246.765 479.638, 238.075 513.090 C 231.078 540.026, 227.562 544.841, 179.971 592.653 C 132.504 640.341, 134.050 634.831, 161.352 658.988 C 169.722 666.394, 167.037 668.276, 212.500 623.139 C 257.505 578.456, 259.684 576.734, 281 569.016 C 306.566 559.760, 345.209 574.092, 363.609 599.654 C 377.950 619.578, 379.981 632.234, 379.992 701.770 L 380 751.041 400.750 750.770 L 421.500 750.500 421.753 603.333 L 422.007 456.165 525.412 559.583 C 646.775 680.961, 629.859 668.470, 648.353 650.365 C 665.405 633.673, 668.361 639.967, 621.173 592.504 C 579.888 550.980, 575.677 545.956, 569.249 530.554 C 567.400 526.124, 565.462 521.719, 564.943 520.764 C 564.425 519.809, 564 518.143, 564 517.062 C 564 515.982, 563.325 512.506, 562.500 509.339 C 555.572 482.740, 575.452 444.891, 603.799 430.711 C 619.950 422.632, 617.885 422.841, 688.500 422.127 L 750.500 421.500 750.771 400.572 C 751.103 374.897, 760.046 378.042, 686.500 377.971 C 635.144 377.922, 623.813 377.665, 620.500 376.471 C 618.300 375.679, 615.896 375.023, 615.157 375.015 C 612.433 374.985, 597.310 366.623, 591.232 361.787 C 569.590 344.566, 556.831 313.426, 562.500 291.661 C 563.325 288.494, 564 285.040, 564 283.985 C 564 282.931, 564.630 280.590, 565.399 278.784 C 566.169 276.978, 567.612 273.475, 568.606 271 C 574.794 255.596, 580.953 248.220, 622.340 206.652 C 668.600 160.190, 665.630 166.963, 647.570 149.109 C 630.799 132.528, 636.952 129.609, 590 176.426 C 542.148 224.142, 537.487 227.548, 511.936 233.477 C 479.072 241.103, 438.934 215.436, 426.743 179 C 422.740 167.038, 422 155.020, 422 102.011 C 422 67.019, 421.670 52.369, 420.839 50.547 L 419.679 48 400.875 48 C 383.307 48, 382.002 48.127, 381.035 49.934" stroke="none" fill="#ffffff" fill-rule="evenodd"/><path d="" stroke="none" fill="#080404" fill-rule="evenodd"/><path d="" stroke="none" fill="#040404" fill-rule="evenodd"/></svg>